{"title":"The Lord of the Rings-The Return of the King-720p x264 BRRip 200","uid":7216242,"size":3701337852,"categoryP":"video","categoryS":"hd___movies","magnet":"?xt=urn:btih:a6d66c8d6d52344f18861ad3095ac64ff8e1a12f&amp;dn=The+Lord+of+the+Rings-The+Return+of+the+King-720p+x264+BRRip+200&amp;tr=udp%3A%2F%2Ftracker.openbittorrent.com%3A80&amp;tr=udp%3A%2F%2Fopen.demonii.com%3A1337&amp;tr=udp%3A%2F%2Ftracker.coppersurfer.tk%3A6969&amp;tr=udp%3A%2F%2Fexodus.desync.com%3A6969","seeders":1,"leechers":1,"uploader":"Caveman44","files":-1,"time":1335386434,"description":"Source: The.Lord.of.the.Rings.The.Return.of.the.King.2003.720p.Bluray.x264-CBGB\n\nSubs: Croatian, Danish, Dutch, English (Hearing Impaired), English, Finnish, French, Greek, Italian, Persian, Polish, Romanian, Russian, Serbian, Slovenian, Spanish, Swedish and Vietnamese.\n\nSample and Screens included.\n\nGeneral\nComplete name                    : The Lord of the Rings-The Return of the King-720p x264 BRRip 2003-CC.mp4\nFormat                           : MPEG-4\nFormat profile                   : Base Media\nCodec ID                         : isom\nFile size                        : 3.41 GiB\nDuration                         : 3h 21mn\nOverall bit rate                 : 2 426 Kbps\nEncoded date                     : UTC 2012-04-22 15:14:57\n\nVideo\nID                               : 1\nFormat                           : AVC\nFormat/Info                      : Advanced Video Codec\nFormat profile                   : &lt;a class=&quot;__cf_email__&quot; href=&quot;/cdn-cgi/l/email-protection&quot; data-cfemail=&quot;94dcfdf3fcd4d8a7baa5&quot;&gt;[email&amp;#160;protected]&lt;/a&gt;&lt;script cf-hash='f9e31' type=&quot;text/javascript&quot;&gt;\n/* &lt;![CDATA[ */!function(){try{var t=&quot;currentScript&quot;in document?document.currentScript:function(){for(var t=document.getElementsByTagName(&quot;script&quot;),e=t.length;e--;)if(t[e].getAttribute(&quot;cf-hash&quot;))return t[e]}();if(t&amp;&amp;t.previousSibling){var e,r,n,i,c=t.previousSibling,a=c.getAttribute(&quot;data-cfemail&quot;);if(a){for(e=&quot;&quot;,r=parseInt(a.substr(0,2),16),n=2;a.length-n;n+=2)i=parseInt(a.substr(n,2),16)^r,e+=String.fromCharCode(i);e=document.createTextNode(e),c.parentNode.replaceChild(e,c)}}}catch(u){}}();/* ]]&gt; */&lt;/script&gt;\nFormat settings, CABAC           : Yes\nFormat settings, ReFrames        : 5 frames\nCodec ID                         : avc1\nCodec ID/Info                    : Advanced Video Coding\nDuration                         : 3h 21mn\nBit rate mode                    : Variable\nBit rate                         : 2 039 Kbps\nMaximum bit rate                 : 24.8 Mbps\nWidth                            : 1 280 pixels\nHeight                           : 528 pixels\nDisplay aspect ratio             : 2.40:1\nFrame rate mode                  : Variable\nFrame rate                       : 23.976 fps\nMinimum frame rate               : 19.048 fps\nMaximum frame rate               : 24.390 fps\nResolution                       : 24 bits\nColorimetry                      : 4:2:0\nScan type                        : Progressive\nBits/(Pixel*Frame)               : 0.126\nStream size                      : 2.86 GiB (84%)\nWriting library                  : x264 core 112\n\nAudio\nID                               : 2\nFormat                           : AAC\nFormat/Info                      : Advanced Audio Codec\nFormat version                   : Version 4\nFormat profile                   : LC\nFormat settings, SBR             : No\nCodec ID                         : 40\nDuration                         : 3h 21mn\nBit rate mode                    : Variable\nBit rate                         : 384 Kbps\nMaximum bit rate                 : 564 Kbps\nChannel(s)                       : 6 channels\nChannel positions                : Front: L C R, Rear: L R, LFE\nSampling rate                    : 48.0 KHz\nResolution                       : 16 bits\nStream size                      : 552 MiB (16%)\nLanguage                         : English\n\nEnjoy...\n\nRequested by Maincore.","torrent":{"xt":"urn:btih:a6d66c8d6d52344f18861ad3095ac64ff8e1a12f","amp;dn":"The+Lord+of+the+Rings-The+Return+of+the+King-720p+x264+BRRip+200","amp;tr":["udp%3A%2F%2Ftracker.openbittorrent.com%3A80","udp%3A%2F%2Fopen.demonii.com%3A1337","udp%3A%2F%2Ftracker.coppersurfer.tk%3A6969","udp%3A%2F%2Fexodus.desync.com%3A6969"],"infoHash":"a6d66c8d6d52344f18861ad3095ac64ff8e1a12f","infoHashBuffer":{"type":"Buffer","data":[166,214,108,141,109,82,52,79,24,134,26,211,9,90,198,79,248,225,161,47]},"announce":[],"urlList":[]}}